<?xml version="1.0" encoding="UTF-8" standalone="no"?>
<!-- Created with Inkscape (http://www.inkscape.org/) -->
<svg xmlns:rdf="http://www.w3.org/1999/02/22-rdf-syntax-ns#" xmlns="http://www.w3.org/2000/svg" xmlns:cc="http://web.resource.org/cc/" xmlns:xlink="http://www.w3.org/1999/xlink" xmlns:dc="http://purl.org/dc/elements/1.1/" xmlns:svg="http://www.w3.org/2000/svg" xmlns:inkscape="http://www.inkscape.org/namespaces/inkscape" xmlns:sodipodi="http://sodipodi.sourceforge.net/DTD/sodipodi-0.dtd" xmlns:ns1="http://sozi.baierouge.fr" id="svg2" viewBox="0 0 140 190" version="1.0" y="0" x="0" inkscape:version="0.91 r13725">
  <defs id="defs3">
  </defs>
  <g id="g1454">
    <g id="g5630">
      <path id="rect2070" style="fill-opacity:.49804;fill:#000000" d="m21 5h103c8.86 0 16 7.136 16 16v153c0 8.86-7.14 16-16 16h-103c-8.864 0-16-7.14-16-16v-153c0-8.864 7.136-16 16-16z"/>
      <path id="rect1300" style="fill:#ffffff" d="m17 1h103c8.86 0 16 7.136 16 16v153c0 8.86-7.14 16-16 16h-103c-8.864 0-16-7.14-16-16v-153c0-8.864 7.136-16 16-16z"/>
      <path id="path5624" style="fill:#c7891f" d="m19 3h103c8.86 0 16 7.136 16 16v153c0 8.86-7.14 16-16 16h-103c-8.864 0-16-7.14-16-16v-153c0-8.864 7.136-16 16-16z"/>
      <path id="rect1306" style="fill:url(#linearGradient4853)" d="m18 2h103c8.86 0 16 7.136 16 16v153c0 8.86-7.14 16-16 16h-103c-8.864 0-16-7.14-16-16v-153c0-8.864 7.136-16 16-16z"/>
    </g>
    <path id="path1385" style="fill:url(#linearGradient8318)" d="m22.167 10h94.413c8.13 0 14.67 6.541 14.67 14.667v140.25c0 8.12-6.54 14.66-14.67 14.66h-94.413c-8.126 0-14.667-6.54-14.667-14.66v-140.25c0-8.129 6.541-14.67 14.667-14.67z"/>
    <path id="path2154" style="fill:url(#linearGradient9086)" d="m22.156 9.375c-8.461 0-15.281 6.82-15.281 15.281v140.25c0 8.46 6.82 15.31 15.281 15.31h94.434c8.46 0 15.29-6.85 15.29-15.31v-140.25c0-8.465-6.83-15.285-15.29-15.285h-94.434zm0 1.25h94.434c7.79 0 14.03 6.241 14.03 14.031v140.25c0 7.79-6.24 14.06-14.03 14.06h-94.434c-7.79 0-14.031-6.27-14.031-14.06v-140.25c0-7.794 6.241-14.035 14.031-14.035z"/>
    <path id="path6344" style="fill:url(#linearGradient5592)" d="m78.815 48.952l-12.782 1.469-7.312-0.844c-2.174-0.257-4.138 0.626-5.531 2.094l-1.344 0.406-15.594 1.813c-2.622 0.304-4.653 2.111-5.469 4.437l-15 4.469c-3.535 1.051-5.519 4.746-4.468 8.281l18.125 61.033c0.552 1.86 1.861 3.24 3.468 4.03 0.182 0.11 0.371 0.19 0.563 0.28 0.251 0.15 0.512 0.26 0.781 0.38 1.585 1.05 3.556 1.49 5.531 0.9l26.907-8 5.25 0.63 20.656 9.22c3.368 1.5 7.279-0.01 8.784-3.38l25.93-58.155c0.85-1.893 0.67-3.911-0.18-5.625-0.08-0.257-0.12-0.505-0.22-0.75-0.07-0.228-0.16-0.439-0.25-0.657-0.58-1.691-1.8-3.149-3.56-3.937l-15.22-6.813c-0.3-0.621-0.66-1.187-1.13-1.687-0.17-0.262-0.32-0.515-0.53-0.75-0.12-0.161-0.24-0.288-0.37-0.438-1.06-1.466-2.63-2.552-4.57-2.781l-8.34-1-8.969-4c-1.074-0.479-2.191-0.564-3.281-0.469-0.61-0.103-1.229-0.231-1.875-0.156z"/>
    <path id="path5594" style="fill:url(#linearGradient5604)" d="m78.75 48.344l-12.656 1.468h-0.125l-7.188-0.843c-2.269-0.268-4.285 0.637-5.781 2.093l-1.344 0.407-15.468 1.812c-2.732 0.317-4.878 2.135-5.844 4.5l-14.75 4.407c-3.858 1.146-6.0209 5.207-4.875 9.062l18.125 61.03c0.601 2.02 2.022 3.52 3.75 4.38v0.03c0.007 0 0.024-0.01 0.031 0 0.21 0.12 0.37 0.2 0.531 0.28h0.032c0.256 0.15 0.489 0.24 0.718 0.34 0.032 0.02 0.063 0.05 0.094 0.07v-0.04c1.704 1.11 3.838 1.61 5.969 0.97l26.843-7.97 4.876 0.57h0.031l20.625 9.21c3.675 1.64 7.956-0.01 9.596-3.68l25.94-58.159c0.91-2.041 0.72-4.222-0.16-6.062-0.01-0.025-0.03-0.067-0.03-0.094-0.05-0.194-0.11-0.411-0.22-0.687v-0.032c-0.07-0.212-0.13-0.422-0.22-0.625-0.01-0.022-0.02-0.04-0.03-0.062-0.64-1.815-1.97-3.399-3.88-4.25l-15.06-6.75c-0.28-0.534-0.58-1.041-1-1.5-0.02-0.028-0.04-0.066-0.06-0.094-0.14-0.214-0.3-0.453-0.5-0.687-0.02-0.023-0.02-0.042-0.03-0.063-0.12-0.156-0.25-0.272-0.35-0.375-0.01-0.014-0.02-0.049-0.03-0.062h-0.03c-1.14-1.552-2.84-2.721-4.94-2.969l-8.152-0.969h-0.032l-8.937-4c-1.144-0.51-2.324-0.58-3.438-0.5-0.045-0.008-0.11 0.008-0.156 0-0.561-0.098-1.161-0.239-1.875-0.156zm0.125 1.218c0.52-0.06 1.094 0.051 1.719 0.157l0.062 0.031 0.094-0.031c1.021-0.089 2.017 0.013 2.969 0.437l8.969 4 0.093 0.032h0.094l8.345 1c1.75 0.206 3.16 1.186 4.12 2.531v0.031l0.04 0.031c0.14 0.172 0.26 0.266 0.34 0.375v0.032l0.03 0.031c0.16 0.186 0.29 0.386 0.47 0.656l0.03 0.063 0.03 0.031c0.42 0.443 0.76 0.953 1.03 1.531l0.1 0.219 0.21 0.093 15.22 6.813c1.61 0.715 2.7 2.022 3.22 3.563v0.031l0.03 0.031c0.09 0.2 0.16 0.388 0.22 0.594l0.03 0.031c0.07 0.161 0.11 0.388 0.19 0.687v0.063l0.03 0.031c0.78 1.571 0.95 3.383 0.19 5.094l-25.94 58.16c-1.364 3.06-4.904 4.42-7.966 3.06l-20.656-9.22-0.094-0.03h-0.094l-5.25-0.63-0.125-0.03-0.125 0.03-26.906 8c-1.785 0.53-3.547 0.16-5-0.81l-0.032-0.03-0.062-0.03c-0.275-0.12-0.518-0.22-0.719-0.34l-0.031-0.04c-0.21-0.1-0.399-0.17-0.531-0.25h-0.031c-1.469-0.72-2.657-1.97-3.157-3.65l-18.125-61.034c-0.955-3.215 0.85-6.545 4.063-7.5l15-4.468 0.312-0.094 0.094-0.313c0.742-2.116 2.56-3.755 4.937-4.031l15.594-1.812h0.063 0.062l1.344-0.407 0.156-0.062 0.125-0.125c1.278-1.346 3.036-2.138 5-1.906l7.313 0.843 0.062 0.031 0.063-0.031 12.781-1.469z"/>
  </g>
</svg>
